# xmcd
#
# Track frame offsets:
# 150
# 17458
# 33063
# 50296
# 60494
# 76214
# 94730
# 110933
# 127943
# 146643
# 160999
# 177877
# 192545
# 210837
# 229817
# 243411
# 258841
# 278419
# 296819
# 313110
# 325800
# 343516
#
# Disc length: 4798 seconds
#
#
# Revision: 0
# Processed by: cddbd v1.5.2PL0 Copyright (c) Steve Scherf et al.
# Submitted via: FreeRIP 2.945 
#
DISCID=2e12bc16
DTITLE=Various Artist - Westerbro LineDance - Øvede 1
DYEAR=2009
DGENRE=Country
TTITLE0=Tracy Byrd - A cowboy and a dancer
TTITLE1=Helena Paparizou - Gigolo
TTITLE2=Enrique Iglesias - You rock me
TTITLE3=Bill Haley and His Comets - Rock around the clock
TTITLE4=Atomik Harmonik - Turbo polka
TTITLE5=Scooter Lee - Break away
TTITLE6=Cubaila - La Charanga
TTITLE7=Ronan Hardiman - Dueling violins
TTITLE8=Scissor Sisters - I don't geel like dancing
TTITLE9=Helena Paparizou - The game of love
TTITLE10=LeAnn Rimes and Brian McFadden - everybody someone
TTITLE11=Chelo - Cha cha
TTITLE12=Eric Carmen - Hungry eyes
TTITLE13=Modern Talkin' - Heart of an angel
TTITLE14=Ray Price - Heartaches by the number
TTITLE15=Blue Lagoon - Heartbreaker
TTITLE16=Darryl Worley - Living in the here and now
TTITLE17=Gareth Gates - Say it isn't so
TTITLE18=Blue Lagoon - Isle of paradise
TTITLE19=The Shamrock - The boy from Baltimore
TTITLE20=Steve Holy - Just a kiss
TTITLE21=Klassik - Wiene mi gente
EXTD=
EXTT0=
EXTT1=
EXTT2=
EXTT3=
EXTT4=
EXTT5=
EXTT6=
EXTT7=
EXTT8=
EXTT9=
EXTT10=
EXTT11=
EXTT12=
EXTT13=
EXTT14=
EXTT15=
EXTT16=
EXTT17=
EXTT18=
EXTT19=
EXTT20=
EXTT21=
PLAYORDER=
